<svg xmlns="http://www.w3.org/2000/svg" width="420" height="220" viewBox="0 0 420 220">
  <rect width="420" height="220" rx="16" fill="#e6fcff"/>
  <rect x="20" y="18" width="380" height="184" rx="16" fill="#f8fbfc"/>
  <text x="38" y="48" fill="#004d57" font-family="DM Sans, sans-serif" font-size="9" font-weight="700" letter-spacing="1.5">AI TOOLKIT</text>
  <g>
    <rect x="55" y="68" width="56" height="56" rx="12" fill="#fff" stroke="#dce8eb"/>
    <rect x="59" y="72" width="48" height="48" rx="10" fill="#c86f51"/>
    <g stroke="#fff4eb" stroke-width="2.3" stroke-linecap="round">
      <path d="M83 78v36M65 96h36M70 83l26 26M96 83l-26 26M76 79l14 34M65 89l36 14M90 79 76 113M101 89 65 103"/>
    </g>
    <rect x="137" y="68" width="56" height="56" rx="12" fill="#fff" stroke="#dce8eb"/>
    <rect x="141" y="72" width="48" height="48" rx="10" fill="#15161a"/>
    <path d="M157 80h8a6 6 0 0 1 0 12h-8z" fill="#f24e1e"/>
    <path d="M165 80h8a6 6 0 0 1 0 12h-8z" fill="#ff7262"/>
    <path d="M157 92h8a6 6 0 0 1 0 12h-8z" fill="#a259ff"/>
    <circle cx="171" cy="98" r="6" fill="#1abcfe"/>
    <path d="M157 104h8a6 6 0 0 1 0 12h-8z" fill="#0acf83"/>
    <rect x="219" y="68" width="56" height="56" rx="12" fill="#fff" stroke="#dce8eb"/>
    <path d="M235 87c2-6 9-9 15-6 5-4 13-2 16 4 7 1 10 9 6 15 3 7-1 14-8 15-4 6-12 7-17 3-7 3-14-2-14-9-6-4-6-13 0-17z" fill="none" stroke="#26313b" stroke-width="2.3" stroke-linejoin="round"/>
    <path d="m247 88-6 8 7 4-6 8m12-20 6 8-7 4 6 8" fill="none" stroke="#26313b" stroke-width="2.3" stroke-linecap="round" stroke-linejoin="round"/>
    <rect x="301" y="68" width="56" height="56" rx="12" fill="#fff" stroke="#dce8eb"/>
    <rect x="305" y="72" width="48" height="48" rx="10" fill="#f1f1ff"/>
    <path d="M316 99c-4-1-6-5-4-9 1-3 4-5 8-5 2-5 9-7 14-4 5-3 12-1 13 5 5 1 7 5 5 9-1 3-4 5-8 5h-28z" fill="#635bff"/>
    <path d="m324 91-5 6 5 6m13-12 5 6-5 6m-3-6h3" fill="none" stroke="#fff" stroke-width="2.2" stroke-linecap="round" stroke-linejoin="round"/>
  </g>
  <g fill="#315861" font-family="DM Sans, sans-serif" font-size="8" text-anchor="middle">
    <text x="83" y="143">Claude</text>
    <text x="165" y="143">Figma</text>
    <text x="247" y="143">ChatGPT</text>
    <text x="329" y="143">Codex</text>
  </g>
  <path d="M38 160h344" stroke="#dce8eb"/>
  <circle cx="44" cy="180" r="3" fill="#00a9c0"/>
  <text x="54" y="183" fill="#315861" font-family="DM Sans, sans-serif" font-size="8" font-weight="700" letter-spacing=".8">HUMAN JUDGMENT, AT EVERY STEP</text>
</svg>
